<svg preserveAspectRatio="none" width="100%" height="100%" overflow="visible" style="display: block;" viewBox="0 0 280 120" fill="none" xmlns="http://www.w3.org/2000/svg">
<g id="Frame 1707485806">
<g id="Map_Toilet">
<path id="Vector" d="M33.457 15.9374C33.457 17.5597 32.1459 18.8749 30.5285 18.8749C28.9111 18.8749 27.5999 17.5597 27.5999 15.9374C27.5999 14.315 28.9111 12.9999 30.5285 12.9999C32.1459 12.9999 33.457 14.315 33.457 15.9374Z" fill="var(--fill-0, #F9F9FA)" stroke="var(--stroke-0, #F9F9FA)" stroke-linecap="round" stroke-linejoin="round"/>
<path id="Vector_2" d="M22.9215 107V77.3638C22.9215 74.3273 21.7495 71.4087 19.6512 69.2198L18.8703 68.4052C16.772 66.2163 15.6 63.2977 15.6 60.2611V42.375C15.6 35.8856 20.8447 30.625 27.3143 30.625H33.1715C39.6411 30.625 44.8858 35.8857 44.8858 42.375V60.2611C44.8858 63.2977 43.7138 66.2163 41.6155 68.4052L40.8346 69.2198C38.7363 71.4087 37.5643 74.3273 37.5643 77.3639V107" stroke="var(--stroke-0, #F9F9FA)" stroke-width="3" stroke-linecap="round"/>
</g>
<g id="Robot_Garo">
<path id="Vector_3" d="M208.604 75.9381V50.0055C208.604 47.8089 205.902 46.7766 204.449 48.4184L199.853 53.6145C199.354 54.1783 198.995 54.8528 198.805 55.5827L191.961 83.3095M203.849 34.1667L191.961 46.1111M220.491 77.1666V44.9166C220.491 43.5973 221.555 42.5277 222.868 42.5277H256.153C257.466 42.5277 258.53 43.5973 258.53 44.9166V77.1666M206.226 91.5001H210.981M249.021 91.5001H253.776M203.872 105.833H256.128C264.019 105.833 270.417 99.4161 270.417 91.5C270.417 83.5839 264.019 77.1667 256.128 77.1667H203.872C195.981 77.1667 189.583 83.5839 189.583 91.5C189.583 99.4161 195.981 105.833 203.872 105.833Z" stroke="var(--stroke-0, #F9F9FA)" stroke-width="3" stroke-linecap="round"/>
</g>
<path id="Vector 3358" opacity="0.06" d="M204 34L37.5 17L192 46L204 34Z" fill="var(--fill-0, white)"/>
</g>
</svg>
