<svg preserveAspectRatio="xMidYMid meet" width="900" height="282" overflow="visible" style="display: block;" viewBox="0 0 900 282" fill="none" xmlns="http://www.w3.org/2000/svg">
<path id="Subtract" d="M758.268 0C836.544 0 900 63.1278 900 141C900 218.872 836.544 282 758.268 282C730.98 282 705.495 274.325 683.87 261.031C661.153 245.624 633.701 236.616 604.134 236.616C574.565 236.616 547.111 245.625 524.393 261.033C502.769 274.326 477.286 282 450 282C422.711 282 397.226 274.324 375.601 261.03C352.884 245.624 325.433 236.616 295.866 236.616C266.299 236.616 238.847 245.624 216.13 261.03C194.505 274.324 169.021 282 141.732 282C63.4557 282 0 218.872 0 141C0 63.1278 63.4557 0 141.732 0C169.002 0 194.472 7.6628 216.087 20.94C238.813 36.3643 266.28 45.3844 295.866 45.3844C325.438 45.3844 352.893 36.3728 375.611 20.9624C397.234 7.67202 422.716 0 450 0C477.286 0 502.769 7.67296 524.393 20.965C547.111 36.3737 574.564 45.3844 604.134 45.3844C633.705 45.3844 661.16 36.3728 683.879 20.9624C705.502 7.67202 730.984 0 758.268 0Z" fill="url(#paint0_linear_0_4)"/>
<defs>
<linearGradient id="paint0_linear_0_4" x1="60.1377" y1="143.35" x2="857.272" y2="143.35" gradientUnits="userSpaceOnUse">
<stop stop-color="#46FFD7"/>
<stop offset="0.504808" stop-color="#2AA6FF"/>
<stop offset="1" stop-color="#7449FF"/>
</linearGradient>
</defs>
</svg>
