<svg width="20" height="20" viewBox="0 0 20 20" fill="none" xmlns="http://www.w3.org/2000/svg">
<path d="M10.0044 3.8489C12.0095 3.8489 12.2469 3.85769 13.0355 3.89285C13.7683 3.92508 14.1641 4.04815 14.4279 4.15071C14.7767 4.28551 15.0288 4.4496 15.2897 4.71039C15.5535 4.97412 15.7148 5.22319 15.8496 5.57189C15.9522 5.83561 16.0753 6.23413 16.1076 6.96376C16.1428 7.75493 16.1516 7.99228 16.1516 9.99365C16.1516 11.998 16.1428 12.2353 16.1076 13.0235C16.0753 13.7561 15.9522 14.1517 15.8496 14.4154C15.7148 14.7641 15.5506 15.0161 15.2897 15.2769C15.0259 15.5406 14.7767 15.7018 14.4279 15.8366C14.1641 15.9392 13.7654 16.0622 13.0355 16.0945C12.244 16.1296 12.0065 16.1384 10.0044 16.1384C7.99932 16.1384 7.76187 16.1296 6.97332 16.0945C6.24047 16.0622 5.84473 15.9392 5.58091 15.8366C5.23207 15.7018 4.97997 15.5377 4.71907 15.2769C4.45525 15.0132 4.29402 14.7641 4.15918 14.4154C4.05658 14.1517 3.93346 13.7532 3.90121 13.0235C3.86603 12.2324 3.85724 11.995 3.85724 9.99365C3.85724 7.98935 3.86603 7.752 3.90121 6.96376C3.93346 6.2312 4.05658 5.83561 4.15918 5.57189C4.29402 5.22319 4.45818 4.97119 4.71907 4.71039C4.9829 4.44667 5.23207 4.28551 5.58091 4.15071C5.84473 4.04815 6.2434 3.92508 6.97332 3.89285C7.76187 3.85769 7.99932 3.8489 10.0044 3.8489ZM10.0044 2.49805C7.96707 2.49805 7.71204 2.50684 6.91176 2.542C6.11442 2.57716 5.56625 2.7061 5.09136 2.8907C4.59595 3.0841 4.17676 3.33903 3.7605 3.75806C3.34131 4.17416 3.08628 4.59318 2.89281 5.08547C2.70813 5.5631 2.57915 6.10813 2.54397 6.90516C2.50879 7.70805 2.5 7.96298 2.5 9.99951C2.5 12.036 2.50879 12.291 2.54397 13.0909C2.57915 13.888 2.70813 14.4359 2.89281 14.9106C3.08628 15.4058 3.34131 15.8249 3.7605 16.241C4.17676 16.6571 4.59595 16.9149 5.08843 17.1054C5.56625 17.29 6.11149 17.4189 6.90883 17.4541C7.70911 17.4893 7.96414 17.498 10.0015 17.498C12.0388 17.498 12.2938 17.4893 13.0941 17.4541C13.8914 17.4189 14.4396 17.29 14.9145 17.1054C15.407 16.9149 15.8262 16.6571 16.2424 16.241C16.6587 15.8249 16.9166 15.4058 17.1072 14.9136C17.2919 14.4359 17.4209 13.8909 17.456 13.0939C17.4912 12.2939 17.5 12.039 17.5 10.0024C17.5 7.96591 17.4912 7.71098 17.456 6.91102C17.4209 6.11399 17.2919 5.56603 17.1072 5.09133C16.9225 4.59318 16.6675 4.17416 16.2483 3.75806C15.832 3.34196 15.4128 3.0841 14.9204 2.89363C14.4425 2.70903 13.8973 2.58009 13.1 2.54493C12.2968 2.50684 12.0417 2.49805 10.0044 2.49805Z" fill="#A0A5B2"/>
<path d="M9.99512 6.24805C7.92478 6.24805 6.24512 7.9277 6.24512 9.99805C6.24512 12.0684 7.92478 13.748 9.99512 13.748C12.0655 13.748 13.7451 12.0684 13.7451 9.99805C13.7451 7.9277 12.0655 6.24805 9.99512 6.24805ZM9.99512 12.4306C8.65196 12.4306 7.56261 11.3412 7.56261 9.99805C7.56261 8.65489 8.65196 7.56554 9.99512 7.56554C11.3383 7.56554 12.4276 8.65489 12.4276 9.99805C12.4276 11.3412 11.3383 12.4306 9.99512 12.4306Z" fill="#A0A5B2"/>
<path d="M14.9951 5.93555C14.9951 6.45468 14.5737 6.87305 14.0576 6.87305C13.5385 6.87305 13.1201 6.45163 13.1201 5.93555C13.1201 5.41641 13.5415 4.99805 14.0576 4.99805C14.5737 4.99805 14.9951 5.41946 14.9951 5.93555Z" fill="#A0A5B2"/>
</svg>
