<svg width="20" height="20" viewBox="0 0 20 20" fill="none" xmlns="http://www.w3.org/2000/svg">
<path d="M17.9631 6.72778C17.9631 6.72778 17.8044 5.59944 17.3157 5.10399C16.6968 4.45191 16.0049 4.44871 15.6875 4.41036C13.415 4.24414 10.0032 4.24414 10.0032 4.24414H9.99683C9.99683 4.24414 6.58496 4.24414 4.3125 4.41036C3.99512 4.44871 3.30322 4.45191 2.68433 5.10399C2.19556 5.59944 2.04004 6.72778 2.04004 6.72778C2.04004 6.72778 1.875 8.05431 1.875 9.37764V10.6179C1.875 11.9412 2.03687 13.2677 2.03687 13.2677C2.03687 13.2677 2.19556 14.3961 2.68115 14.8915C3.30005 15.5436 4.11255 15.5212 4.47437 15.5915C5.77563 15.7162 10 15.7546 10 15.7546C10 15.7546 13.415 15.7482 15.6875 15.5851C16.0049 15.5468 16.6968 15.5436 17.3157 14.8915C17.8044 14.3961 17.9631 13.2677 17.9631 13.2677C17.9631 13.2677 18.125 11.9444 18.125 10.6179V9.37764C18.125 8.05431 17.9631 6.72778 17.9631 6.72778ZM8.32105 12.1234V7.5237L12.7104 9.83153L8.32105 12.1234Z" fill="#A0A5B2"/>
</svg>
