<svg width="235" height="40" viewBox="0 0 235 40" fill="none" xmlns="http://www.w3.org/2000/svg">
<path d="M96.5879 0C108.036 0.000186986 115.246 7.72613 115.246 20.0547C115.246 32.2737 107.981 39.9998 96.5879 40C85.1393 40 77.9287 32.2739 77.9287 20.0547C77.9287 7.72598 85.1393 0 96.5879 0ZM129.592 24.6572C129.592 29.9175 132.454 32.877 137.628 32.877C142.747 32.8768 145.498 29.9722 145.498 24.6572V0.821289H153.59V23.835C153.59 34.0266 147.7 39.9999 137.628 40C127.445 40 121.501 34.0267 121.501 23.835V0.821289H129.592V24.6572ZM39.0244 39.1777H30.1084L27.0254 30.5752H11.6689L8.6416 39.1777H0L15.3574 0.821289H23.668L39.0244 39.1777ZM57.9834 0.821289C67.5605 0.821292 72.6796 5.15046 72.6797 13.1504C72.6797 18.4653 70.2577 22.3009 65.6895 24.2188L74.4961 39.1777H65.6338L57.9834 25.5342H51.5439V39.1777H43.6729V0.821289H57.9834ZM185.99 27.7803V0.821289H193.695V39.1777H185.164L169.147 12.3281V39.1777H161.441V0.821289H169.973L185.99 27.7803ZM216.506 0.821289C228.34 0.821289 235 7.61666 235 19.8906C235 32.1094 228.175 39.1776 216.451 39.1777H201.755V0.821289H216.506ZM96.5879 7.12305C89.983 7.12305 86.3496 11.6712 86.3496 20.0547C86.3496 28.3287 89.9829 32.877 96.5879 32.877C103.193 32.8768 106.825 28.3285 106.825 20.0547C106.825 11.6714 103.193 7.12324 96.5879 7.12305ZM209.736 32.1641H215.846C222.836 32.164 226.578 27.8355 226.578 19.8906C226.578 11.9454 222.946 7.83496 215.9 7.83496H209.736V32.1641ZM14.0361 23.9453H24.6592L19.3203 9.04102L14.0361 23.9453ZM51.5439 19.0137H57.3779C62.2766 19.0137 64.5332 17.0956 64.5332 13.1504C64.5332 9.20526 62.2212 7.3418 57.4326 7.3418H51.5439V19.0137Z" fill="#F9F9FA"/>
</svg>
