<svg width="206" height="38" viewBox="0 0 206 38" fill="none" xmlns="http://www.w3.org/2000/svg">
<path fill-rule="evenodd" clip-rule="evenodd" d="M185.003 0.0085637C190.987 0.00865663 195.336 0.960818 198.689 3.00871C202.297 5.21157 204.128 8.76224 204.128 13.5621C204.128 18.6364 201.78 22.6359 197.166 24.4836L195.962 24.966L206 38H192.765L185.176 27.3839H180.699V38H168.243V0.0085637H185.003ZM180.502 17.6983H187.315C189.626 17.6983 191.498 15.9073 191.499 13.6962C191.499 11.4854 189.626 9.69126 187.315 9.69126H180.502V17.6983Z" fill="#F9F9FA"/>
<path d="M26.8191 20.3359V0H39.5533V37.9943H27.3993L12.7342 17.6584V37.9943H0V0H12.1569L26.8191 20.3359Z" fill="#F9F9FA"/>
<path fill-rule="evenodd" clip-rule="evenodd" d="M88.9956 37.9943H75.6637L73.7679 32.9674H58.7337L56.8408 37.9943H43.5089L59.1937 0H73.3109L88.9956 37.9943ZM61.781 23.8385H70.7236L66.2523 11.9692L61.781 23.8385Z" fill="#F9F9FA"/>
<path d="M105.803 24.9832L115.214 0H128.546L112.861 37.9943H98.744L83.0593 0H96.3941L105.803 24.9832Z" fill="#F9F9FA"/>
<path d="M163.751 9.3116H145.277V14.4355H163.555V23.5616H145.277V28.6827H164.144V37.9943H132.502V0H163.751V9.3116Z" fill="#F9F9FA"/>
</svg>
