<svg width="206" height="42" viewBox="0 0 206 42" fill="none" xmlns="http://www.w3.org/2000/svg">
<path fill-rule="evenodd" clip-rule="evenodd" d="M48.2568 11.6348C57.0155 11.6349 62.5039 17.4531 62.5039 26.7617C62.5038 36.1811 57.0155 41.9988 48.2568 41.999C39.498 41.999 34.0098 36.1812 34.0098 26.7617C34.0098 17.4529 39.4979 11.6348 48.2568 11.6348ZM48.2568 18.3389C44.1545 18.3389 41.8809 21.3316 41.8809 26.7617C41.8809 32.358 44.1546 35.2949 48.2568 35.2949C52.3588 35.2947 54.6318 32.3578 54.6318 26.7617C54.6318 21.3318 52.3589 18.3391 48.2568 18.3389Z" fill="#F9F9FA"/>
<path fill-rule="evenodd" clip-rule="evenodd" d="M81.1719 11.6348C89.9308 11.6348 95.4189 17.453 95.4189 26.7617C95.4189 36.1812 89.9307 41.999 81.1719 41.999C72.413 41.999 66.9249 36.1812 66.9248 26.7617C66.9248 17.4529 72.4129 11.6348 81.1719 11.6348ZM81.1719 18.3389C77.0696 18.3389 74.7969 21.3316 74.7969 26.7617C74.7969 32.358 77.0696 35.2949 81.1719 35.2949C85.2741 35.2949 87.5468 32.3579 87.5469 26.7617C87.5469 21.3316 85.2741 18.3389 81.1719 18.3389Z" fill="#F9F9FA"/>
<path fill-rule="evenodd" clip-rule="evenodd" d="M161.237 11.6348C170.273 11.6348 174.044 17.9515 174.044 26.3184C174.044 27.2049 173.989 28.3132 173.822 29.0889H154.696C155.417 33.4107 158.078 35.5713 162.846 35.5713C165.95 35.5713 168.223 34.9618 170.718 33.4658L172.99 39.1729C169.553 41.1676 166.338 41.999 162.014 41.999C152.59 41.9989 147.102 36.2916 147.102 26.6504C147.102 17.619 152.479 11.635 161.237 11.6348ZM161.016 17.6748C157.468 17.675 155.306 19.78 154.696 23.8799H166.781C166.338 19.669 164.619 17.6748 161.016 17.6748Z" fill="#F9F9FA"/>
<path d="M141.359 41.2803H133.599V12.3564H141.359V41.2803Z" fill="#F9F9FA"/>
<path d="M108.932 24.6562L119.575 12.3555H128.833L117.357 25.376L129.609 41.2793H120.352L108.932 26.208V41.2793H101.171V0.830078H108.932V24.6562Z" fill="#F9F9FA"/>
<path fill-rule="evenodd" clip-rule="evenodd" d="M14.4131 2.49219C24.0589 2.49219 29.2147 6.86941 29.2148 14.959C29.2148 20.3337 26.7759 24.213 22.1748 26.1523L31.0439 41.2783H22.1191L14.4131 27.4814H7.92773V41.2783H0V2.49219H14.4131ZM7.92773 20.8877H13.8037C18.7375 20.8877 21.0107 18.9484 21.0107 14.959C21.0106 10.9698 18.682 9.08602 13.8594 9.08594H7.92773V20.8877Z" fill="#F9F9FA"/>
<path d="M191.531 2.49219C199.569 2.49221 205.169 6.14909 205.169 13.2412C205.169 19.6687 201.842 22.4949 195.467 26.4844C190.977 29.2548 188.149 31.4718 187.207 34.4639H206V41.2783H178.726V38.8965C178.726 31.1946 182.218 27.0938 189.48 22.4395C195.134 18.7828 197.019 17.2312 197.02 14.0732C197.02 11.0811 194.802 9.41798 190.811 9.41797C187.484 9.41797 184.934 10.4159 182.162 12.5215L178.726 6.9248C182.828 3.82197 186.875 2.49219 191.531 2.49219Z" fill="#F9F9FA"/>
<path d="M137.479 0C140.417 0 142.136 1.66236 142.136 4.2666C142.136 6.92621 140.417 8.5332 137.479 8.5332C134.596 8.53302 132.822 6.92606 132.822 4.2666C132.822 1.6625 134.596 0.000186499 137.479 0Z" fill="#F9F9FA"/>
</svg>
