<svg preserveAspectRatio="none" width="100%" height="100%" overflow="visible" style="display: block;" viewBox="0 0 118 12" fill="none" xmlns="http://www.w3.org/2000/svg">
<g id="Union">
<path fill-rule="evenodd" clip-rule="evenodd" d="M56.8429 0.00270433C58.6815 0.00273367 60.0178 0.303416 61.0481 0.95012C62.1566 1.64576 62.7191 2.76702 62.7191 4.28275C62.719 5.88517 61.9979 7.14818 60.58 7.73167L60.21 7.88401L63.2943 12H59.2278L56.896 8.64754H55.5204V12H51.6933V0.00270433H56.8429ZM55.4601 5.58894H57.5532C58.2632 5.58894 58.8386 5.02335 58.8388 4.32512C58.8388 3.62697 58.2634 3.0604 57.5532 3.0604H55.4601V5.58894Z" fill="var(--fill-0, black)"/>
<path fill-rule="evenodd" clip-rule="evenodd" d="M94.0894 12H90.0228L89.4457 10.4117H84.8606L84.2826 12H80.2161L85.0002 0.00270433H89.3053L94.0894 12ZM85.7897 7.52975H88.5167L87.1527 3.78155L85.7897 7.52975Z" fill="var(--fill-0, black)"/>
<path fill-rule="evenodd" clip-rule="evenodd" d="M102.428 0.00270433C103.56 0.00274324 104.413 0.293998 104.965 0.776142C105.569 1.3038 105.908 2.07636 105.908 3.01893C105.908 4.55179 105.436 5.30228 104.36 5.76382C104.212 5.8345 104.142 5.85764 104.137 5.85938C104.144 5.86225 104.266 5.90748 104.507 6.03065C105.28 6.42744 106.228 6.80082 106.228 8.79537C106.228 9.97768 105.862 10.7312 105.304 11.2797C104.799 11.7767 103.926 12 102.863 12H95.2265V0.00270433H102.428ZM98.9725 9.18209H101.311C101.668 9.18206 101.937 9.1072 102.106 8.9405C102.294 8.75634 102.417 8.50284 102.417 8.10577C102.43 7.55087 102.183 7.20239 101.699 7.14032C101.499 7.125 101.451 7.12866 101.381 7.12951C101.363 7.12923 101.333 7.12861 101.314 7.12861H98.9725V9.18209ZM98.9725 4.69381H101.358C101.403 4.69621 101.539 4.67645 101.573 4.66587C101.919 4.55581 102.09 4.18358 102.09 3.71214C102.09 3.4337 101.998 3.19057 101.828 3.02344C101.689 2.88674 101.478 2.82064 101.143 2.82061H98.9725V4.69381Z" fill="var(--fill-0, black)"/>
<path d="M73.0039 8.67819H79.801L78.4776 11.9991H69.0282V0.00180288H73.0039V8.67819Z" fill="var(--fill-0, black)"/>
<path d="M116.644 3.20192L111.348 3.20282C111.175 3.20282 111.035 3.34042 111.035 3.51022C111.035 3.63411 111.107 3.74426 111.24 3.79868L115.76 5.60246C117.306 6.22528 118 7.28067 118 8.69441V9.01082C118 10.6612 116.469 11.9991 114.79 11.9991H107.66V8.79898L113.895 8.79718C114.097 8.797 114.261 8.63561 114.261 8.4366C114.261 8.28173 114.205 8.17753 114.022 8.09856L109.571 6.32272C108.304 5.81682 107.464 4.65959 107.464 3.27584V2.98648C107.464 1.33801 108.709 0.00193041 110.385 0.00180288H117.92L116.644 3.20192Z" fill="var(--fill-0, black)"/>
<path d="M8.24028 6.42188V0H12.1529V11.9982H8.41854L3.91263 5.57632V11.9982H0V0H3.73527L8.24028 6.42188Z" fill="var(--fill-0, black)"/>
<path fill-rule="evenodd" clip-rule="evenodd" d="M27.3443 11.9982H23.248L22.6655 10.4108H18.0462L17.4646 11.9982H13.3683L18.1875 0H22.5251L27.3443 11.9982ZM18.9825 7.52794H21.7301L20.3563 3.77975L18.9825 7.52794Z" fill="var(--fill-0, black)"/>
<path d="M32.5083 7.88942L35.4 0H39.4963L34.6771 11.9982H30.3395L25.5203 0H29.6175L32.5083 7.88942Z" fill="var(--fill-0, black)"/>
<path d="M50.3132 2.9405H44.6369V4.55859H50.2529V7.4405H44.6369V9.05769H50.4338V11.9982H40.7117V0H50.3132V2.9405Z" fill="var(--fill-0, black)"/>
</g>
</svg>
